<?xml version="1.0" encoding="utf-8"?>
<!-- Generator: Adobe Illustrator 16.0.0, SVG Export Plug-In . SVG Version: 6.00 Build 0)  -->
<!DOCTYPE svg PUBLIC "-//W3C//DTD SVG 1.1//EN" "http://www.w3.org/Graphics/SVG/1.1/DTD/svg11.dtd">
<svg version="1.1" id="Layer_1" xmlns="http://www.w3.org/2000/svg" xmlns:xlink="http://www.w3.org/1999/xlink" x="0px" y="0px"
	 width="841.89px" height="595.275px" viewBox="0 0 841.89 595.275" enable-background="new 0 0 841.89 595.275"
	 xml:space="preserve">
<g>
	<g>
		<path fill="#FFA300" d="M312.818,267.578c-18.026,0-30.82,12.782-30.82,30.806c0,18.02,12.794,30.804,30.82,30.804
			c11.037,0,18.018-4.755,22.562-9.505c2.557-2.813,4.524-6.065,5.927-9.658h-17.451c-0.697,1.04-1.622,1.85-2.668,2.662
			c-1.865,1.279-4.653,2.556-8.369,2.556c-7.574,0-12.803-5.218-13.372-12.196h43.018l0.242-1.413
			c0.119-0.934,0.346-2.211,0.346-4.406C343.052,280.36,330.25,267.578,312.818,267.578z M299.446,292.561
			c1.747-7.791,6.272-11.628,13.372-11.628c7.086,0,11.626,3.837,13.373,11.628H299.446z"/>
		<path fill="#FFA300" d="M383.185,291.989l-8.719-1.172c-5.234-0.812-6.987-2.317-6.987-4.646c0-2.903,2.796-5.238,8.729-5.238
			c4.072,0,6.395,1.399,7.682,2.68c0.804,0.812,1.271,1.641,1.623,2.559h16.853c-0.466-3.491-1.747-6.62-3.705-9.298
			c-3.383-4.664-10.019-9.295-22.452-9.295c-16.871,0-25.575,8.709-25.575,18.593c0,9.879,5.684,15.596,19.756,17.446l8.717,1.173
			c5.237,0.811,6.986,2.212,6.986,5.806c0,2.904-2.791,5.808-9.303,5.808c-5.008,0-7.326-1.731-8.604-3.49
			c-0.82-1.039-1.171-2.211-1.279-3.488h-16.86c0.227,3.727,1.391,6.979,3.352,9.895c3.51,5.007,9.898,9.868,23.393,9.868
			c17.442,0,26.162-8.708,26.162-18.592C402.951,300.025,396.671,293.732,383.185,291.989z"/>
		<path fill="#FFA300" d="M434.368,251.979H416.92v16.756h-9.305v16.275h9.305v26.743c0,10.59,5.7,16.291,16.859,16.291h17.652
			v-16.291h-12.998c-2.685,0-4.065-1.384-4.065-4.076v-22.667h17.063v-16.275h-17.063V251.979z"/>
		<rect x="462.391" y="268.735" fill="#FFA300" width="17.448" height="59.31"/>
		<rect x="462.391" y="246.851" fill="#FFA300" width="17.448" height="13.267"/>
		<rect x="564.17" y="268.735" fill="#FFA300" width="17.45" height="59.31"/>
		<rect x="564.17" y="246.851" fill="#FFA300" width="17.45" height="13.267"/>
		<path fill="#FFA300" d="M618.834,251.979h-17.448v16.756h-9.297v16.275h9.297v26.743c0,10.59,5.7,16.291,16.859,16.291h17.661
			v-16.291h-13.013c-2.659,0-4.06-1.384-4.06-4.076v-22.667h17.072v-16.275h-17.072V251.979z"/>
		<rect x="646.856" y="246.851" fill="#FFA300" width="17.448" height="13.267"/>
		<rect x="646.856" y="268.735" fill="#FFA300" width="17.448" height="59.31"/>
		<path fill="#FFA300" d="M533.92,274.541h-0.598c-1.043-1.276-2.21-2.453-3.6-3.505c-2.445-1.729-6.279-3.458-11.515-3.458
			c-15.81,0-27.314,11.61-27.314,28.472c0,16.863,11.505,28.505,27.314,28.505c4.651,0,8.151-1.4,10.471-2.92
			c1.402-0.81,2.557-1.849,3.479-2.901h0.595v9.342c0,2.661-1.398,4.061-4.074,4.061h-26.866v16.289h31.525
			c11.163,0,16.855-5.701,16.855-16.289v-63.4h-15.115L533.92,274.541z M520.07,311.078c-7.231,0-12.677-6.44-12.677-15.028
			c0-8.573,5.445-15.011,12.677-15.011c7.248,0,12.683,6.438,12.683,15.011C532.753,304.638,527.318,311.078,520.07,311.078z"/>
	</g>
	<g>
		<rect x="199.266" y="250.634" fill="#FFA300" width="54.891" height="21.69"/>
		<polygon fill="#FFA300" points="232.469,288.929 199.266,288.929 199.266,272.324 177.585,272.324 177.585,310.617 
			232.469,310.617 		"/>
		<rect x="199.266" y="322.968" fill="#FFA300" width="54.891" height="21.675"/>
	</g>
</g>
</svg>
